<?xml version="1.0" standalone="no"?>
<!DOCTYPE svg PUBLIC "-//W3C//DTD SVG 20010904//EN"
 "http://www.w3.org/TR/2001/REC-SVG-20010904/DTD/svg10.dtd">
<svg version="1.0" xmlns="http://www.w3.org/2000/svg"
 width="540.000000pt" height="540.000000pt" viewBox="0 0 540.000000 540.000000"
 preserveAspectRatio="xMidYMid meet">
<metadata>
Created by potrace 1.11, written by Peter Selinger 2001-2013
</metadata>
<g transform="translate(0.000000,540.000000) scale(0.100000,-0.100000)"
fill="#000000" stroke="none">
<path d="M753 5151 c-7 -11 -29 -22 -55 -26 -24 -4 -55 -14 -70 -21 -15 -8
-40 -14 -56 -14 -16 0 -37 -9 -47 -20 -11 -12 -34 -28 -52 -37 -60 -28 -161
-149 -208 -248 -82 -174 -76 23 -71 -2048 3 -1160 9 -1853 15 -1860 5 -7 13
-46 17 -87 8 -84 50 -178 90 -205 14 -9 24 -25 24 -39 0 -13 7 -29 15 -36 8
-7 15 -18 15 -24 1 -25 20 -38 76 -49 54 -11 59 -15 64 -41 4 -24 12 -31 43
-40 21 -6 38 -15 37 -20 -1 -4 11 -15 27 -23 21 -12 85 -18 253 -24 333 -12
3724 -9 3769 4 20 6 47 21 61 33 14 12 39 26 55 29 79 18 96 26 90 46 -4 12
-1 21 7 23 7 2 32 9 56 15 35 10 42 16 42 36 0 15 10 31 25 41 14 9 25 25 25
35 0 10 11 26 25 35 14 9 27 30 31 50 3 18 12 38 20 45 8 6 14 16 14 22 0 6 6
18 14 26 9 10 18 58 24 131 5 67 9 888 8 1955 l-1 1840 -23 44 c-13 24 -29 60
-36 80 -12 37 -93 153 -111 160 -5 2 -24 19 -41 38 -17 18 -35 33 -40 33 -5 0
-36 20 -69 45 -33 25 -69 45 -81 45 -33 0 -114 39 -114 55 0 13 -248 15 -1928
15 -1884 0 -1927 0 -1939 -19z m3477 -257 c85 -16 232 -77 269 -111 10 -10 38
-31 61 -48 44 -32 132 -137 153 -183 6 -15 22 -42 34 -61 12 -18 25 -49 29
-70 4 -20 12 -47 19 -61 22 -45 25 -155 25 -1032 0 -476 5 -891 10 -922 6 -37
5 -66 -1 -86 -7 -19 -11 -245 -12 -627 -2 -532 -4 -601 -18 -628 -9 -16 -20
-46 -24 -65 -4 -19 -16 -46 -26 -59 -11 -13 -19 -30 -19 -38 0 -17 -55 -91
-82 -111 -10 -7 -18 -19 -18 -27 0 -7 -17 -27 -37 -44 -21 -17 -47 -39 -58
-49 -11 -11 -31 -23 -45 -27 -14 -4 -47 -23 -75 -41 -31 -21 -62 -34 -82 -34
-18 0 -40 -8 -50 -18 -41 -42 -99 -43 -1720 -40 -848 2 -1545 6 -1549 10 -4 4
-2 14 4 21 14 16 6 27 -19 27 -35 0 -109 31 -133 55 -14 14 -32 25 -40 25 -17
0 -126 103 -126 119 0 6 -11 17 -25 23 -15 7 -25 20 -25 32 0 12 -13 34 -29
49 -21 19 -32 41 -37 73 -3 25 -17 58 -30 73 -13 15 -23 36 -22 47 0 10 -5 62
-11 114 -8 60 -12 268 -12 560 1 2322 3 2497 34 2615 35 132 116 265 217 355
34 30 74 65 88 78 13 12 30 22 37 22 7 0 23 8 36 19 40 30 142 59 254 70 39 4
723 8 1520 9 1293 1 1459 0 1535 -14z m376 -4231 c-10 -10 -19 5 -10 18 6 11
8 11 12 0 2 -7 1 -15 -2 -18z m-113 -70 c-7 -2 -21 -2 -30 0 -10 3 -4 5 12 5
17 0 24 -2 18 -5z"/>
<path d="M1090 4784 c-14 -7 -35 -14 -46 -14 -12 0 -27 -6 -33 -14 -7 -8 -25
-18 -41 -21 -39 -9 -136 -85 -193 -153 -26 -31 -53 -64 -60 -72 -14 -17 -27
-52 -64 -165 l-26 -80 2 -980 c2 -539 2 -993 1 -1010 -1 -16 -3 -178 -6 -360
-4 -334 8 -675 28 -775 6 -30 13 -70 15 -88 3 -18 14 -37 24 -43 11 -5 19 -17
19 -26 0 -9 7 -24 16 -34 13 -15 19 -31 23 -60 1 -3 12 -11 26 -17 13 -6 31
-25 40 -42 9 -17 24 -30 34 -30 22 0 43 -22 39 -41 -2 -7 15 -18 41 -25 25 -8
62 -26 83 -40 21 -15 57 -30 80 -35 57 -11 3145 -5 3183 6 16 4 49 21 73 36
24 15 57 31 73 34 18 4 29 13 29 24 0 10 13 22 33 29 17 7 42 28 55 47 12 20
33 40 46 45 18 7 26 21 37 69 9 42 19 63 31 67 39 12 47 129 48 684 0 278 1
899 3 1380 3 1254 4 1203 -23 1280 -24 70 -58 147 -75 169 -5 7 -46 50 -91 95
-77 77 -184 146 -226 146 -9 0 -32 7 -51 15 -32 13 -229 15 -1579 14 -1296 -1
-1547 -3 -1568 -15z m1777 -656 c4 -7 9 -66 10 -130 1 -65 4 -122 8 -128 3 -5
30 -10 60 -10 29 0 66 -6 82 -14 65 -32 100 -46 128 -52 17 -4 44 -17 60 -29
17 -12 54 -34 83 -49 28 -14 52 -31 52 -36 0 -5 16 -18 34 -27 30 -15 166
-178 166 -197 0 -3 11 -30 25 -59 27 -54 55 -170 55 -223 0 -20 -6 -34 -16
-38 -21 -8 -383 -8 -423 0 -23 5 -30 12 -30 28 1 51 -15 107 -32 117 -11 5
-19 18 -19 28 0 21 -92 87 -147 106 -21 7 -46 10 -58 5 -19 -7 -20 -15 -20
-251 l0 -244 45 -3 c68 -4 230 -42 270 -64 19 -10 52 -21 73 -25 27 -4 41 -12
47 -27 5 -15 26 -26 69 -39 49 -15 62 -23 67 -43 3 -13 18 -30 33 -37 14 -7
26 -20 26 -29 0 -10 14 -32 30 -50 36 -40 55 -72 55 -94 0 -9 7 -28 15 -42 39
-70 34 -350 -8 -438 -32 -69 -51 -97 -134 -196 -40 -48 -83 -90 -96 -94 -12
-4 -32 -15 -45 -25 -13 -10 -47 -25 -75 -35 -29 -9 -65 -22 -82 -30 -64 -28
-175 -54 -228 -54 -31 0 -59 -5 -62 -10 -4 -6 -7 -68 -7 -138 0 -73 -4 -132
-10 -139 -8 -10 -62 -13 -208 -13 -164 0 -200 3 -210 15 -9 11 -11 50 -8 145
5 147 9 140 -78 140 -36 0 -68 7 -92 20 -20 11 -66 34 -102 50 -104 49 -226
142 -283 217 -80 106 -127 180 -127 201 0 10 -4 22 -9 28 -13 13 -61 170 -61
198 0 39 18 45 115 40 50 -3 144 -6 210 -7 66 -1 126 -6 133 -10 6 -5 12 -22
12 -38 0 -44 41 -118 96 -172 52 -50 133 -97 170 -97 21 0 21 1 23 255 l2 254
-43 11 c-24 6 -58 15 -77 20 -22 6 -41 5 -53 -1 -28 -15 -54 -4 -38 16 10 12
8 16 -15 25 -14 5 -35 10 -46 10 -11 0 -41 11 -67 24 -26 13 -64 29 -85 36
-21 6 -45 23 -54 36 -9 14 -29 32 -46 41 -39 20 -85 69 -102 111 -8 18 -21 35
-30 38 -8 4 -15 18 -15 34 0 15 -6 33 -14 39 -8 6 -16 24 -19 39 -3 15 -10 45
-16 67 -14 53 -14 160 0 204 56 173 105 249 254 391 17 15 56 42 87 60 32 18
61 36 64 41 3 5 16 9 30 9 14 0 35 7 47 15 31 20 146 55 183 55 49 0 54 12 54
146 0 89 3 124 13 127 6 3 98 6 204 6 143 1 194 -2 200 -11z"/>
<path d="M2355 3404 c-108 -57 -145 -107 -145 -196 0 -40 6 -61 27 -92 34 -50
41 -56 74 -56 14 0 34 -7 45 -15 25 -19 58 -19 74 0 8 10 12 70 13 192 l2 178
-30 2 c-16 2 -43 -4 -60 -13z"/>
<path d="M2883 2455 c-3 -9 -3 -18 0 -21 2 -3 1 -21 -3 -40 -5 -20 -5 -70 -1
-112 4 -42 4 -91 -1 -108 -5 -19 -4 -42 1 -57 6 -15 6 -28 0 -34 -14 -14 -2
-39 24 -50 29 -13 146 14 175 40 11 11 35 26 53 35 18 10 34 25 35 36 1 10 7
23 13 29 19 19 12 99 -13 153 -23 49 -29 54 -118 98 -97 48 -154 58 -165 31z"/>
<path d="M2283 228 c-2 -5 69 -8 158 -8 89 0 159 3 155 8 -4 4 -75 7 -158 7
-82 0 -152 -3 -155 -7z"/>
<path d="M2710 230 c-48 -4 1 -7 139 -8 118 -1 212 0 210 3 -8 7 -269 11 -349
5z"/>
<path d="M3415 230 c-3 -5 1 -10 9 -10 9 0 16 5 16 10 0 6 -4 10 -9 10 -6 0
-13 -4 -16 -10z"/>
<path d="M3208 223 c7 -3 16 -2 19 1 4 3 -2 6 -13 5 -11 0 -14 -3 -6 -6z"/>
</g>
</svg>
